<svg xmlns="http://www.w3.org/2000/svg" width="32" height="32" viewBox="0 0 32 32"><g transform="translate(-1711 -34)"><path d="M16,1A15,15,0,0,0,5.393,26.607,15,15,0,1,0,26.607,5.393,14.9,14.9,0,0,0,16,1m0-1A16,16,0,1,1,0,16,16,16,0,0,1,16,0Z" transform="translate(1711 34)" fill="#05050a"/><path d="M1,1V11H15V1H1M0,0H16V12H0Z" transform="translate(1719 44)" fill="#05050a"/><path d="M1727.315,52.56l-7.849-7.662.7-.716,7.151,6.98,7.151-6.98.7.716Z" transform="translate(-0.315)" fill="#05050a"/></g></svg>